REM DIRINDEX 1\2,1\3
REM DIRNAME folder01,folder02,folder03
TITLE ""
FILE "NextStage_4th-Part5-P215-5.mp3" MP3
  TRACK 01 AUDIO
    TITLE "0:"
    INDEX 01 00:00:00
  TRACK 02 AUDIO
    TITLE "3:cjc036_3038"
    INDEX 01 00:00:09
  TRACK 03 AUDIO
    TITLE "0:"
    INDEX 01 00:02:28
  TRACK 04 AUDIO
    TITLE "3:cjc036_3039"
    INDEX 01 00:02:43
  TRACK 05 AUDIO
    TITLE "0:"
    INDEX 01 00:03:31
  TRACK 06 AUDIO
    TITLE "2:cjc036_3040"
    INDEX 01 00:03:33
  TRACK 07 AUDIO
    TITLE "0:"
    INDEX 01 00:06:47
  TRACK 08 AUDIO
    TITLE "3:cjc036_3041"
    INDEX 01 00:06:59
  TRACK 09 AUDIO
    TITLE "0:"
    INDEX 01 00:07:47
  TRACK 10 AUDIO
    TITLE "2:cjc036_3042"
    INDEX 01 00:07:58
  TRACK 11 AUDIO
    TITLE "0:"
    INDEX 01 00:10:59
  TRACK 12 AUDIO
    TITLE "3:cjc036_3043"
    INDEX 01 00:11:39
  TRACK 13 AUDIO
    TITLE "0:"
    INDEX 01 00:13:71
  TRACK 14 AUDIO
    TITLE "3:cjc036_3044"
    INDEX 01 00:14:07
  TRACK 15 AUDIO
    TITLE "0:"
    INDEX 01 00:15:01
  TRACK 16 AUDIO
    TITLE "2:cjc036_3045"
    INDEX 01 00:15:07
  TRACK 17 AUDIO
    TITLE "0:"
    INDEX 01 00:18:44
  TRACK 18 AUDIO
    TITLE "3:cjc036_3046"
    INDEX 01 00:18:62
  TRACK 19 AUDIO
    TITLE "0:"
    INDEX 01 00:19:48
  TRACK 20 AUDIO
    TITLE "2:cjc036_3047"
    INDEX 01 00:19:50
  TRACK 21 AUDIO
    TITLE "0:"
    INDEX 01 00:23:08
  TRACK 22 AUDIO
    TITLE "3:cjc036_3048"
    INDEX 01 00:23:69
  TRACK 23 AUDIO
    TITLE "0:"
    INDEX 01 00:26:11
  TRACK 24 AUDIO
    TITLE "3:cjc036_3049"
    INDEX 01 00:26:17
  TRACK 25 AUDIO
    TITLE "0:"
    INDEX 01 00:27:22
  TRACK 26 AUDIO
    TITLE "2:cjc036_3050"
    INDEX 01 00:27:30
  TRACK 27 AUDIO
    TITLE "0:"
    INDEX 01 00:30:46
  TRACK 28 AUDIO
    TITLE "3:cjc036_3051"
    INDEX 01 00:30:71
  TRACK 29 AUDIO
    TITLE "0:"
    INDEX 01 00:32:00
  TRACK 30 AUDIO
    TITLE "2:cjc036_3052"
    INDEX 01 00:32:01
  TRACK 31 AUDIO
    TITLE "0:"
    INDEX 01 00:34:45
  TRACK 32 AUDIO
    TITLE "3:cjc036_3053"
    INDEX 01 00:35:17
  TRACK 33 AUDIO
    TITLE "0:"
    INDEX 01 00:37:52
  TRACK 34 AUDIO
    TITLE "3:cjc036_3054"
    INDEX 01 00:37:63
  TRACK 35 AUDIO
    TITLE "0:"
    INDEX 01 00:38:55
  TRACK 36 AUDIO
    TITLE "2:cjc036_3055"
    INDEX 01 00:38:57
  TRACK 37 AUDIO
    TITLE "0:"
    INDEX 01 00:43:23
  TRACK 38 AUDIO
    TITLE "3:cjc036_3056"
    INDEX 01 00:43:52
  TRACK 39 AUDIO
    TITLE "0:"
    INDEX 01 00:44:52
  TRACK 40 AUDIO
    TITLE "2:cjc036_3057"
    INDEX 01 00:44:60
  TRACK 41 AUDIO
    TITLE "0:"
    INDEX 01 00:48:49
  TRACK 42 AUDIO
    TITLE "3:cjc036_3058"
    INDEX 01 00:48:65
  TRACK 43 AUDIO
    TITLE "0:"
    INDEX 01 00:49:70
  TRACK 44 AUDIO
    TITLE "2:cjc036_3059"
    INDEX 01 00:49:72
  TRACK 45 AUDIO
    TITLE "0:"
    INDEX 01 00:56:47
  TRACK 46 AUDIO
    TITLE "3:cjc036_3060"
    INDEX 01 00:57:17
  TRACK 47 AUDIO
    TITLE "0:"
    INDEX 01 00:59:53
  TRACK 48 AUDIO
    TITLE "3:cjc036_3061"
    INDEX 01 00:59:71
  TRACK 49 AUDIO
    TITLE "0:"
    INDEX 01 01:00:66
  TRACK 50 AUDIO
    TITLE "2:cjc036_3062"
    INDEX 01 01:00:68
  TRACK 51 AUDIO
    TITLE "0:"
    INDEX 01 01:04:13
  TRACK 52 AUDIO
    TITLE "3:cjc036_3063"
    INDEX 01 01:04:27
  TRACK 53 AUDIO
    TITLE "0:"
    INDEX 01 01:05:24
  TRACK 54 AUDIO
    TITLE "2:cjc036_3064"
    INDEX 01 01:05:30
  TRACK 55 AUDIO
    TITLE "0:"
    INDEX 01 01:09:69
  TRACK 56 AUDIO
    TITLE "3:cjc036_3065"
    INDEX 01 01:10:16
  TRACK 57 AUDIO
    TITLE "0:"
    INDEX 01 01:11:19
  TRACK 58 AUDIO
    TITLE "2:cjc036_3066"
    INDEX 01 01:11:21
  TRACK 59 AUDIO
    TITLE "0:"
    INDEX 01 01:15:70
  TRACK 60 AUDIO
    TITLE "3:cjc036_3067"
    INDEX 01 01:16:42
  TRACK 61 AUDIO
    TITLE "0:"
    INDEX 01 01:18:74
  TRACK 62 AUDIO
    TITLE "3:cjc036_3068"
    INDEX 01 01:19:13
  TRACK 63 AUDIO
    TITLE "0:"
    INDEX 01 01:19:70
  TRACK 64 AUDIO
    TITLE "2:cjc036_3069"
    INDEX 01 01:20:00
  TRACK 65 AUDIO
    TITLE "0:"
    INDEX 01 01:24:08
  TRACK 66 AUDIO
    TITLE "3:cjc036_3070"
    INDEX 01 01:24:22
  TRACK 67 AUDIO
    TITLE "0:"
    INDEX 01 01:25:23
  TRACK 68 AUDIO
    TITLE "2:cjc036_3071"
    INDEX 01 01:25:29
  TRACK 69 AUDIO
    TITLE "0:"
    INDEX 01 01:28:02
  TRACK 70 AUDIO
    TITLE "3:cjc036_3072"
    INDEX 01 01:28:45
  TRACK 71 AUDIO
    TITLE "0:"
    INDEX 01 01:31:08
  TRACK 72 AUDIO
    TITLE "3:cjc036_3073"
    INDEX 01 01:31:14
  TRACK 73 AUDIO
    TITLE "0:"
    INDEX 01 01:32:12
  TRACK 74 AUDIO
    TITLE "2:cjc036_3074"
    INDEX 01 01:32:13
  TRACK 75 AUDIO
    TITLE "0:"
    INDEX 01 01:36:25
  TRACK 76 AUDIO
    TITLE "3:cjc036_3075"
    INDEX 01 01:36:47
  TRACK 77 AUDIO
    TITLE "0:"
    INDEX 01 01:37:34
  TRACK 78 AUDIO
    TITLE "2:cjc036_3076"
    INDEX 01 01:37:40
  TRACK 79 AUDIO
    TITLE "0:"
    INDEX 01 01:40:36
  TRACK 80 AUDIO
    TITLE "3:cjc036_3077"
    INDEX 01 01:40:44
  TRACK 81 AUDIO
    TITLE "0:"
    INDEX 01 01:41:40
  TRACK 82 AUDIO
    TITLE "2:cjc036_3078"
    INDEX 01 01:41:46
  TRACK 83 AUDIO
    TITLE "0:"
    INDEX 01 01:45:10
